# xmcd
#
# Track frame offsets:
#	150
#	10262
#	20607
#	29863
#	41585
#	53881
#	65448
#	73976
#	85404
#	97577
#
# Disc length: 1463 seconds
#
# Revision: 1
# Processed by: cddbd v1.5.2PL0 Copyright (c) Steve Scherf et al.
# Submitted via: audiograbber 1.82.02
#
DISCID=8505b50a
DTITLE=Johnny Rodriguez - Lone Star Desperado
DYEAR=2006
DGENRE=Country
TTITLE0=Ridin' My Thumb To Mexico
TTITLE1=You Always Come Back (To Hurting Me)
TTITLE2=Just Get Up And Close The Door
TTITLE3=I Just Can't Get her Out Of My Mind
TTITLE4=Love Puts A Song In My Heart
TTITLE5=Dance With Me (Just One More Time)
TTITLE6=That's The Way Love Goes
TTITLE7=Pass Me By (If You're Only Passing Through)
TTITLE8=I Couldn't Be Me Without You
TTITLE9=We're Over
EXTD=
EXTT0=
EXTT1=
EXTT2=
EXTT3=
EXTT4=
EXTT5=
EXTT6=
EXTT7=
EXTT8=
EXTT9=
PLAYORDER=
